<svg width="121" height="34" viewBox="0 0 121 34" fill="none" xmlns="http://www.w3.org/2000/svg">
<path d="M0 10.0306L9.6 16.448V12.4436L3.76392 8.79144V8.60883L9.6 4.94361V0.847961L0 7.51318V10.0306Z" fill="#9ED11D"/>
<path d="M121 7.51318L111.4 0.847961V4.94361L117.246 8.60883V8.79144L111.4 12.4436V16.448L121 10.0306V7.51318Z" fill="#9ED11D"/>
<path d="M53.9587 16.772C52.4035 16.772 51.0607 16.4336 49.9303 15.7568C48.8071 15.08 47.9395 14.1332 47.3275 12.9164C46.7227 11.6996 46.4203 10.2848 46.4203 8.67199C46.4203 7.05919 46.7227 5.64439 47.3275 4.42759C47.9395 3.21079 48.8071 2.26399 49.9303 1.58719C51.0607 0.910391 52.4035 0.571991 53.9587 0.571991C55.7443 0.571991 57.2419 1.01479 58.4515 1.90039C59.6683 2.78599 60.5251 3.98479 61.0219 5.49679L58.0627 6.31759C57.7747 5.37439 57.2887 4.64359 56.6047 4.12519C55.9207 3.59959 55.0387 3.33679 53.9587 3.33679C52.9723 3.33679 52.1479 3.55639 51.4855 3.99559C50.8303 4.43479 50.3371 5.05399 50.0059 5.85319C49.6747 6.65239 49.5091 7.59199 49.5091 8.67199C49.5091 9.75199 49.6747 10.6916 50.0059 11.4908C50.3371 12.29 50.8303 12.9092 51.4855 13.3484C52.1479 13.7876 52.9723 14.0072 53.9587 14.0072C55.0387 14.0072 55.9207 13.7444 56.6047 13.2188C57.2887 12.6932 57.7747 11.9624 58.0627 11.0264L61.0219 11.8472C60.5251 13.3592 59.6683 14.558 58.4515 15.4436C57.2419 16.3292 55.7443 16.772 53.9587 16.772Z" fill="black"/>
<path d="M70.0743 16.772C68.5191 16.772 67.1763 16.4336 66.0459 15.7568C64.9227 15.08 64.0551 14.1332 63.4431 12.9164C62.8383 11.6996 62.5359 10.2848 62.5359 8.67199C62.5359 7.05919 62.8383 5.64439 63.4431 4.42759C64.0551 3.21079 64.9227 2.26399 66.0459 1.58719C67.1763 0.910391 68.5191 0.571991 70.0743 0.571991C71.6295 0.571991 72.9687 0.910391 74.0919 1.58719C75.2223 2.26399 76.0899 3.21079 76.6947 4.42759C77.3067 5.64439 77.6127 7.05919 77.6127 8.67199C77.6127 10.2848 77.3067 11.6996 76.6947 12.9164C76.0899 14.1332 75.2223 15.08 74.0919 15.7568C72.9687 16.4336 71.6295 16.772 70.0743 16.772ZM70.0743 14.0072C71.0607 14.0216 71.8815 13.8092 72.5367 13.37C73.1919 12.9308 73.6815 12.308 74.0055 11.5016C74.3367 10.6952 74.5023 9.75199 74.5023 8.67199C74.5023 7.59199 74.3367 6.65599 74.0055 5.86399C73.6815 5.07199 73.1919 4.45639 72.5367 4.01719C71.8815 3.57799 71.0607 3.35119 70.0743 3.33679C69.0879 3.32239 68.2671 3.53479 67.6119 3.97399C66.9567 4.41319 66.4635 5.03599 66.1323 5.84239C65.8083 6.64879 65.6463 7.59199 65.6463 8.67199C65.6463 9.75199 65.8083 10.688 66.1323 11.48C66.4635 12.272 66.9567 12.8876 67.6119 13.3268C68.2671 13.766 69.0879 13.9928 70.0743 14.0072Z" fill="black"/>
<path d="M79.7687 16.448V0.895991H84.8015C84.9239 0.895991 85.1759 0.899591 85.5575 0.906791C85.9391 0.913991 86.3063 0.939191 86.6591 0.982391C87.9119 1.13359 88.9739 1.56919 89.8451 2.28919C90.7163 3.00919 91.3787 3.92359 91.8323 5.03239C92.2859 6.14119 92.5127 7.35439 92.5127 8.67199C92.5127 9.98959 92.2859 11.2028 91.8323 12.3116C91.3787 13.4204 90.7163 14.3348 89.8451 15.0548C88.9739 15.7748 87.9119 16.2104 86.6591 16.3616C86.3063 16.4048 85.9391 16.43 85.5575 16.4372C85.1759 16.4444 84.9239 16.448 84.8015 16.448H79.7687ZM82.7495 13.6832H84.8015C84.9959 13.6832 85.2587 13.6796 85.5899 13.6724C85.9211 13.658 86.2199 13.6256 86.4863 13.5752C87.1631 13.4384 87.7139 13.1216 88.1387 12.6248C88.5707 12.128 88.8875 11.5304 89.0891 10.832C89.2979 10.1336 89.4023 9.41359 89.4023 8.67199C89.4023 7.89439 89.2943 7.15639 89.0783 6.45799C88.8695 5.75959 88.5491 5.16919 88.1171 4.68679C87.6851 4.20439 87.1415 3.89839 86.4863 3.76879C86.2199 3.71119 85.9211 3.67879 85.5899 3.67159C85.2587 3.66439 84.9959 3.66079 84.8015 3.66079H82.7495V13.6832Z" fill="black"/>
<path d="M95.1038 16.448V0.895991H105.256V3.63919H98.0414V6.96559H103.96V9.70879H98.0414V13.7048H105.256V16.448H95.1038Z" fill="black"/>
<path d="M15.1796 16.448V0.895991H18.1604L24.9212 11.264V0.895991H27.902V16.448H24.9212L18.1604 6.07999V16.448H15.1796Z" fill="#9ED11D"/>
<path d="M37.5899 16.772C36.0347 16.772 34.6919 16.4336 33.5615 15.7568C32.4383 15.08 31.5707 14.1332 30.9587 12.9164C30.3539 11.6996 30.0515 10.2848 30.0515 8.67199C30.0515 7.05919 30.3539 5.64439 30.9587 4.42759C31.5707 3.21079 32.4383 2.26399 33.5615 1.58719C34.6919 0.910391 36.0347 0.571991 37.5899 0.571991C39.1451 0.571991 40.4843 0.910391 41.6075 1.58719C42.7379 2.26399 43.6055 3.21079 44.2103 4.42759C44.8223 5.64439 45.1283 7.05919 45.1283 8.67199C45.1283 10.2848 44.8223 11.6996 44.2103 12.9164C43.6055 14.1332 42.7379 15.08 41.6075 15.7568C40.4843 16.4336 39.1451 16.772 37.5899 16.772ZM37.5899 14.0072C38.5763 14.0216 39.3971 13.8092 40.0523 13.37C40.7075 12.9308 41.1971 12.308 41.5211 11.5016C41.8523 10.6952 42.0179 9.75199 42.0179 8.67199C42.0179 7.59199 41.8523 6.65599 41.5211 5.86399C41.1971 5.07199 40.7075 4.45639 40.0523 4.01719C39.3971 3.57799 38.5763 3.35119 37.5899 3.33679C36.6035 3.32239 35.7827 3.53479 35.1275 3.97399C34.4723 4.41319 33.9791 5.03599 33.6479 5.84239C33.3239 6.64879 33.1619 7.59199 33.1619 8.67199C33.1619 9.75199 33.3239 10.688 33.6479 11.48C33.9791 12.272 34.4723 12.8876 35.1275 13.3268C35.7827 13.766 36.6035 13.9928 37.5899 14.0072Z" fill="#9ED11D"/>
<path d="M19.1098 33.428C18.4498 33.428 17.8658 33.292 17.3578 33.02C16.8538 32.748 16.4578 32.364 16.1698 31.868C15.8818 31.372 15.7378 30.792 15.7378 30.128V24.614L16.6258 24.608V30.014C16.6258 30.462 16.7018 30.85 16.8538 31.178C17.0058 31.502 17.2038 31.77 17.4478 31.982C17.6958 32.19 17.9658 32.344 18.2578 32.444C18.5498 32.544 18.8338 32.594 19.1098 32.594C19.3898 32.594 19.6758 32.544 19.9678 32.444C20.2598 32.344 20.5278 32.19 20.7718 31.982C21.0158 31.77 21.2138 31.502 21.3658 31.178C21.5178 30.85 21.5938 30.462 21.5938 30.014V24.608H22.4818V30.128C22.4818 30.792 22.3378 31.372 22.0498 31.868C21.7618 32.36 21.3638 32.744 20.8558 33.02C20.3518 33.292 19.7698 33.428 19.1098 33.428Z" fill="#2C2921" fill-opacity="0.5"/>
<path d="M27.0436 33.248V24.608H27.9316L32.6896 31.688V24.608H33.5776V33.248H32.6896L27.9316 26.162V33.248H27.0436Z" fill="#2C2921" fill-opacity="0.5"/>
<path d="M38.2584 33.248V24.608H39.1404V33.248H38.2584Z" fill="#2C2921" fill-opacity="0.5"/>
<path d="M46.0152 33.248L43.0392 24.608H43.9572L46.5912 32.246L49.2432 24.608H50.1612L47.1852 33.248H46.0152Z" fill="#2C2921" fill-opacity="0.5"/>
<path d="M53.9414 33.248V24.608H59.3414V25.454H54.8234V28.442H58.6214V29.288H54.8234V32.402H59.3414V33.248H53.9414Z" fill="#2C2921" fill-opacity="0.5"/>
<path d="M63.6651 33.248V24.608H67.0011C67.0851 24.608 67.1791 24.612 67.2831 24.62C67.3911 24.624 67.4991 24.636 67.6071 24.656C68.0591 24.724 68.4411 24.882 68.7531 25.13C69.0691 25.374 69.3071 25.682 69.4671 26.054C69.6311 26.426 69.7131 26.838 69.7131 27.29C69.7131 27.942 69.5411 28.508 69.1971 28.988C68.8531 29.468 68.3611 29.77 67.7211 29.894L67.4151 29.966H64.5471V33.248H63.6651ZM68.8971 33.248L67.1931 29.732L68.0391 29.408L69.9111 33.248H68.8971ZM64.5471 29.126H66.9771C67.0491 29.126 67.1331 29.122 67.2291 29.114C67.3251 29.106 67.4191 29.092 67.5111 29.072C67.8071 29.008 68.0491 28.886 68.2371 28.706C68.4291 28.526 68.5711 28.312 68.6631 28.064C68.7591 27.816 68.8071 27.558 68.8071 27.29C68.8071 27.022 68.7591 26.764 68.6631 26.516C68.5711 26.264 68.4291 26.048 68.2371 25.868C68.0491 25.688 67.8071 25.566 67.5111 25.502C67.4191 25.482 67.3251 25.47 67.2291 25.466C67.1331 25.458 67.0491 25.454 66.9771 25.454H64.5471V29.126Z" fill="#2C2921" fill-opacity="0.5"/>
<path d="M77.1155 33.428C76.5115 33.428 75.9675 33.328 75.4835 33.128C75.0035 32.924 74.6055 32.636 74.2895 32.264C73.9775 31.892 73.7735 31.45 73.6775 30.938L74.5774 30.788C74.7215 31.348 75.0255 31.788 75.4895 32.108C75.9535 32.424 76.5075 32.582 77.1515 32.582C77.5755 32.582 77.9555 32.516 78.2915 32.384C78.6275 32.248 78.8915 32.056 79.0835 31.808C79.2755 31.56 79.3715 31.266 79.3715 30.926C79.3715 30.702 79.3315 30.512 79.2515 30.356C79.1715 30.196 79.0655 30.064 78.9335 29.96C78.8015 29.856 78.6575 29.77 78.5015 29.702C78.3455 29.63 78.1935 29.572 78.0455 29.528L75.8555 28.874C75.5915 28.798 75.3475 28.702 75.1235 28.586C74.8995 28.466 74.7035 28.324 74.5354 28.16C74.3715 27.992 74.2435 27.796 74.1515 27.572C74.0595 27.348 74.0135 27.092 74.0135 26.804C74.0135 26.316 74.1415 25.894 74.3975 25.538C74.6535 25.182 75.0035 24.908 75.4475 24.716C75.8915 24.524 76.3975 24.43 76.9655 24.434C77.5415 24.434 78.0555 24.536 78.5075 24.74C78.9635 24.944 79.3395 25.236 79.6355 25.616C79.9314 25.992 80.1275 26.438 80.2235 26.954L79.2995 27.122C79.2395 26.746 79.1015 26.42 78.8855 26.144C78.6695 25.868 78.3935 25.656 78.0575 25.508C77.7255 25.356 77.3595 25.278 76.9595 25.274C76.5715 25.274 76.2255 25.34 75.9215 25.472C75.6215 25.6 75.3835 25.776 75.2075 26C75.0315 26.224 74.9435 26.48 74.9435 26.768C74.9435 27.06 75.0235 27.294 75.1835 27.47C75.3475 27.646 75.5475 27.784 75.7835 27.884C76.0235 27.984 76.2555 28.066 76.4795 28.13L78.1715 28.628C78.3475 28.676 78.5535 28.746 78.7895 28.838C79.0295 28.926 79.2615 29.054 79.4855 29.222C79.7135 29.386 79.9015 29.602 80.0495 29.87C80.1975 30.138 80.2715 30.478 80.2715 30.89C80.2715 31.29 80.1915 31.648 80.0315 31.964C79.8755 32.28 79.6535 32.546 79.3655 32.762C79.0815 32.978 78.7475 33.142 78.3635 33.254C77.9835 33.37 77.5675 33.428 77.1155 33.428Z" fill="#2C2921" fill-opacity="0.5"/>
<path d="M84.51 33.248V24.608H85.392V33.248H84.51Z" fill="#2C2921" fill-opacity="0.5"/>
<path d="M92.3688 33.248V25.454H89.3508V24.608H96.2688V25.454H93.2508V33.248H92.3688Z" fill="#2C2921" fill-opacity="0.5"/>
<path d="M102.532 33.248V29.63L99.6342 24.608H100.654L102.976 28.622L105.286 24.608H106.306L103.42 29.63V33.248H102.532Z" fill="#2C2921" fill-opacity="0.5"/>
</svg>
